<svg width="21" height="21" viewBox="0 0 21 21" fill="none" xmlns="http://www.w3.org/2000/svg">
<path fill-rule="evenodd" clip-rule="evenodd" d="M8.89042 3.75158L6.69139 1.52481C5.80813 0.630402 4.37608 0.630402 3.49282 1.52481L1.29379 3.75158C0.410532 4.64599 0.410532 6.09611 1.29379 6.99052L3.49282 9.21729C4.37608 10.1117 5.80813 10.1117 6.69139 9.21729L8.89042 6.99052C9.77368 6.09611 9.77368 4.64599 8.89042 3.75158ZM12.453 9.81162C12.0687 9.81162 11.7128 9.60678 11.5161 9.27247C11.3194 8.93803 11.3111 8.52366 11.4942 8.18148L15.0382 1.55605C15.2288 1.19965 15.5968 0.977702 15.997 0.977702C16.3972 0.977702 16.7654 1.19965 16.956 1.55605L20.5 8.18148C20.6829 8.52366 20.6746 8.93803 20.4779 9.27247C20.2814 9.60678 19.9255 9.81162 19.5411 9.81162H12.453ZM0.730104 16.437C0.730104 18.8725 2.68689 20.854 5.09202 20.854C7.49716 20.854 9.45394 18.8725 9.45394 16.437C9.45394 14.0015 7.49716 12.0201 5.09202 12.0201C2.68689 12.0201 0.730104 14.0015 0.730104 16.437ZM18.1778 12.0201H13.8159C12.6114 12.0201 11.6349 13.0088 11.6349 14.2285V18.6455C11.6349 19.8652 12.6114 20.854 13.8159 20.854H18.1778C19.3823 20.854 20.3587 19.8652 20.3587 18.6455V14.2285C20.3587 13.0088 19.3823 12.0201 18.1778 12.0201Z" fill="white" fill-opacity="0.6" style="fill:white;fill-opacity:0.6;"/>
</svg>
