<svg width="24" height="25" viewBox="0 0 24 25" fill="none" xmlns="http://www.w3.org/2000/svg">
<path fill-rule="evenodd" clip-rule="evenodd" d="M12 0.5C18.6168 0.5 24 5.8832 24 12.5C24 19.1168 18.6168 24.5 12 24.5C5.3832 24.5 0 19.1168 0 12.5C0 5.8832 5.3832 0.5 12 0.5ZM13.2 6.05H10.8V13.7H13.2V6.05ZM11.9914 18.8C12.7309 18.8 13.35 18.1981 13.35 17.4586C13.35 16.7191 12.7309 16.1 11.9914 16.1C11.2519 16.1 10.65 16.7191 10.65 17.4586C10.65 18.1981 11.2519 18.8 11.9914 18.8Z" fill="#AA0A1E" style="fill:#AA0A1E;fill:color(display-p3 0.6667 0.0392 0.1176);fill-opacity:1;"/>
</svg>
