<svg width="24" height="25" viewBox="0 0 24 25" fill="none" xmlns="http://www.w3.org/2000/svg">
<g clip-path="url(#clip0_13_30523)">
<path fill-rule="evenodd" clip-rule="evenodd" d="M24 12.5C24 19.1274 18.6274 24.5 12 24.5C5.37258 24.5 0 19.1274 0 12.5C0 5.87258 5.37258 0.5 12 0.5C18.6274 0.5 24 5.87258 24 12.5ZM21 12.5C21 17.4706 16.9706 21.5 12 21.5C7.02944 21.5 3 17.4706 3 12.5C3 7.52944 7.02944 3.5 12 3.5C16.9706 3.5 21 7.52944 21 12.5Z" fill="white" fill-opacity="0.1" style="fill:white;fill-opacity:0.1;"/>
<path d="M12 0.5C14.0532 0.5 16.0721 1.02681 17.8635 2.03005C19.6549 3.03328 21.1589 4.47938 22.2317 6.23002C23.3045 7.98065 23.9101 9.97727 23.9907 12.0289C24.0714 14.0805 23.6242 16.1185 22.6921 17.9479C21.7599 19.7773 20.374 21.3369 18.6668 22.4776C16.9597 23.6183 14.9884 24.3019 12.9415 24.463C10.8946 24.6241 8.84068 24.2573 6.97609 23.3977C5.11149 22.5381 3.49864 21.2145 2.2918 19.5534L4.71885 17.7901C5.62398 19.0359 6.83362 20.0286 8.23206 20.6733C9.63051 21.318 11.171 21.5931 12.7061 21.4723C14.2413 21.3514 15.7198 20.8387 17.0001 19.9832C18.2805 19.1277 19.32 17.958 20.0191 16.5859C20.7182 15.2139 21.0535 13.6854 20.9931 12.1467C20.9326 10.608 20.4784 9.11049 19.6738 7.79751C18.8692 6.48454 17.7411 5.39996 16.3976 4.64754C15.054 3.89511 13.5399 3.5 12 3.5V0.5Z" fill="#47A5FA" style="fill:#47A5FA;fill:color(display-p3 0.2784 0.6471 0.9804);fill-opacity:1;"/>
</g>
<defs>
<clipPath id="clip0_13_30523">
<rect width="24" height="24" fill="white" style="fill:white;fill-opacity:1;" transform="translate(0 0.5)"/>
</clipPath>
</defs>
</svg>
