<svg width="24" height="24" viewBox="0 0 24 24" fill="none" xmlns="http://www.w3.org/2000/svg">
<path fill-rule="evenodd" clip-rule="evenodd" d="M3 12C3 10.8954 3.8955 10 5 10C6.1045 10 7 10.8954 7 12C7 13.1046 6.1045 14 5 14C3.8955 14 3 13.1046 3 12ZM12 10C10.8955 10 10 10.8954 10 12C10 13.1046 10.8955 14 12 14C13.1045 14 14 13.1046 14 12C14 10.8954 13.1045 10 12 10ZM19 10C17.8955 10 17 10.8954 17 12C17 13.1046 17.8955 14 19 14C20.1045 14 21 13.1046 21 12C21 10.8954 20.1045 10 19 10Z" fill="#F1F4F7" style="fill:#F1F4F7;fill:color(display-p3 0.9451 0.9569 0.9686);fill-opacity:1;"/>
</svg>
