<svg width="20" height="20" viewBox="0 0 20 20" fill="none" xmlns="http://www.w3.org/2000/svg">
<path fill-rule="evenodd" clip-rule="evenodd" d="M12.2 10V4.4C12.2 3.0766 11.1233 2 9.8 2C8.4767 2 7.4 3.0766 7.4 4.4V10C7.4 11.3234 8.4767 12.4 9.8 12.4C11.1233 12.4 12.2 11.3234 12.2 10ZM10.6012 16.4H12.2002V18H10.6002V18.0001H9.0002V18H7.4002V16.4H9.0012L9.00175 15.5428C6.29135 15.1534 4.2002 12.8169 4.2002 10.0005V9.19961H5.8002V10.0005C5.8002 12.2063 7.5943 14.0001 9.8002 14.0001C12.0061 14.0001 13.8002 12.2063 13.8002 10.0005V9.19961H15.4002V10.0005C15.4002 12.8169 13.3121 15.1534 10.6017 15.5428L10.6012 16.4Z" fill="white" fill-opacity="0.6" style="fill:white;fill-opacity:0.6;"/>
</svg>
