<svg width="47" height="32" viewBox="0 0 47 32" fill="none" xmlns="http://www.w3.org/2000/svg">
<rect x="0.600098" width="46.4" height="32" rx="16" fill="#0064E0" style="fill:#0064E0;fill:color(display-p3 0.0000 0.3922 0.8784);fill-opacity:1;"/>
<path fill-rule="evenodd" clip-rule="evenodd" d="M26.2 16V10.4C26.2 9.0766 25.1233 8 23.8 8C22.4767 8 21.4 9.0766 21.4 10.4V16C21.4 17.3234 22.4767 18.4 23.8 18.4C25.1233 18.4 26.2 17.3234 26.2 16ZM24.6012 22.4H26.2002V24H24.6002V24.0001H23.0002V24H21.4002V22.4H23.0012L23.0017 21.5428C20.2913 21.1534 18.2002 18.8169 18.2002 16.0005V15.1996H19.8002V16.0005C19.8002 18.2063 21.5943 20.0001 23.8002 20.0001C26.0061 20.0001 27.8002 18.2063 27.8002 16.0005V15.1996H29.4002V16.0005C29.4002 18.8169 27.3121 21.1534 24.6017 21.5428L24.6012 22.4Z" fill="#F1F4F7" style="fill:#F1F4F7;fill:color(display-p3 0.9451 0.9569 0.9686);fill-opacity:1;"/>
</svg>
