<svg width="22" height="22" viewBox="0 0 22 22" fill="none" xmlns="http://www.w3.org/2000/svg">
<path fill-rule="evenodd" clip-rule="evenodd" d="M9.3125 18.125C4.44549 18.125 0.5 14.1795 0.5 9.3125C0.5 4.44549 4.44549 0.5 9.3125 0.5C14.1795 0.5 18.125 4.44549 18.125 9.3125C18.125 11.3717 17.4187 13.2659 16.2352 14.7662L21.3857 19.9166L19.7947 21.5076L14.6286 16.3415C13.1509 17.4609 11.3093 18.125 9.3125 18.125ZM9.3125 15.875C12.9369 15.875 15.875 12.9369 15.875 9.3125C15.875 5.68813 12.9369 2.75 9.3125 2.75C5.68813 2.75 2.75 5.68813 2.75 9.3125C2.75 12.9369 5.68813 15.875 9.3125 15.875Z" fill="white" fill-opacity="0.6" style="fill:white;fill-opacity:0.6;"/>
</svg>
