<svg width="24" height="24" viewBox="0 0 24 24" fill="none" xmlns="http://www.w3.org/2000/svg">
<g clip-path="url(#clip0_13_30475)">
<path fill-rule="evenodd" clip-rule="evenodd" d="M24 12C24 18.6274 18.6274 24 12 24C5.37258 24 0 18.6274 0 12C0 5.37258 5.37258 0 12 0C18.6274 0 24 5.37258 24 12ZM21 12C21 16.9706 16.9706 21 12 21C7.02944 21 3 16.9706 3 12C3 7.02944 7.02944 3 12 3C16.9706 3 21 7.02944 21 12Z" fill="white" fill-opacity="0.1" style="fill:white;fill-opacity:0.1;"/>
<path d="M24 12C24 14.5342 23.1977 17.0033 21.7082 19.0534C20.2187 21.1036 18.1183 22.6296 15.7082 23.4127C13.2981 24.1958 10.7019 24.1958 8.2918 23.4127C5.88167 22.6296 3.78133 21.1036 2.2918 19.0534L4.71885 17.2901C5.836 18.8277 7.41126 19.9722 9.21885 20.5595C11.0264 21.1468 12.9736 21.1468 14.7812 20.5595C16.5887 19.9722 18.164 18.8277 19.2812 17.2901C20.3983 15.7524 21 13.9006 21 12H24Z" fill="#47A5FA" style="fill:#47A5FA;fill:color(display-p3 0.2784 0.6471 0.9804);fill-opacity:1;"/>
</g>
<defs>
<clipPath id="clip0_13_30475">
<rect width="24" height="24" fill="white" style="fill:white;fill-opacity:1;"/>
</clipPath>
</defs>
</svg>
