<svg width="40" height="40" viewBox="0 0 40 40" fill="none" xmlns="http://www.w3.org/2000/svg">
<mask id="mask0_1_10973" style="mask-type:alpha" maskUnits="userSpaceOnUse" x="0" y="0" width="40" height="40">
<circle cx="20" cy="20" r="20" fill="#C4C4C4" style="fill:#C4C4C4;fill:color(display-p3 0.7686 0.7686 0.7686);fill-opacity:1;"/>
</mask>
<g mask="url(#mask0_1_10973)">
<circle cx="20" cy="20" r="20" fill="white" fill-opacity="0.1" style="fill:white;fill-opacity:0.1;"/>
<path fill-rule="evenodd" clip-rule="evenodd" d="M18.3904 12.7516L16.1914 10.5248C15.3081 9.6304 13.8761 9.6304 12.9928 10.5248L10.7938 12.7516C9.91053 13.646 9.91053 15.0961 10.7938 15.9905L12.9928 18.2173C13.8761 19.1117 15.3081 19.1117 16.1914 18.2173L18.3904 15.9905C19.2737 15.0961 19.2737 13.646 18.3904 12.7516ZM21.953 18.8116C21.5687 18.8116 21.2128 18.6068 21.0161 18.2725C20.8194 17.938 20.8111 17.5237 20.9942 17.1815L24.5382 10.556C24.7288 10.1997 25.0968 9.9777 25.497 9.9777C25.8972 9.9777 26.2654 10.1997 26.456 10.556L30 17.1815C30.1829 17.5237 30.1746 17.938 29.9779 18.2725C29.7814 18.6068 29.4255 18.8116 29.0411 18.8116H21.953ZM10.2301 25.437C10.2301 27.8725 12.1869 29.854 14.592 29.854C16.9972 29.854 18.9539 27.8725 18.9539 25.437C18.9539 23.0015 16.9972 21.0201 14.592 21.0201C12.1869 21.0201 10.2301 23.0015 10.2301 25.437ZM27.6778 21.0201H23.3159C22.1114 21.0201 21.1349 22.0088 21.1349 23.2285V27.6455C21.1349 28.8652 22.1114 29.854 23.3159 29.854H27.6778C28.8823 29.854 29.8587 28.8652 29.8587 27.6455V23.2285C29.8587 22.0088 28.8823 21.0201 27.6778 21.0201Z" fill="#F1F4F7" style="fill:#F1F4F7;fill:color(display-p3 0.9451 0.9569 0.9686);fill-opacity:1;"/>
</g>
</svg>
